<svg width="16" height="17" viewBox="0 0 16 17" fill="none" xmlns="http://www.w3.org/2000/svg">
<path d="M14.6666 14.5V13.1667C14.6666 11.9241 13.8168 10.88 12.6666 10.584M10.3333 2.69384C11.3106 3.08943 12 4.04754 12 5.16667C12 6.28579 11.3106 7.2439 10.3333 7.63949M11.3333 14.5C11.3333 13.2575 11.3333 12.6362 11.1303 12.1462C10.8597 11.4928 10.3405 10.9736 9.68714 10.703C9.19708 10.5 8.57582 10.5 7.33331 10.5H5.33331C4.0908 10.5 3.46955 10.5 2.97949 10.703C2.32608 10.9736 1.80695 11.4928 1.5363 12.1462C1.33331 12.6362 1.33331 13.2575 1.33331 14.5M8.99998 5.16667C8.99998 6.63943 7.80607 7.83333 6.33331 7.83333C4.86055 7.83333 3.66665 6.63943 3.66665 5.16667C3.66665 3.69391 4.86055 2.5 6.33331 2.5C7.80607 2.5 8.99998 3.69391 8.99998 5.16667Z" stroke="#A8A8A8" stroke-width="1.2" stroke-linecap="round" stroke-linejoin="round"/>
</svg>
